<svg width="237" height="41" viewBox="0 0 237 41" fill="none" xmlns="http://www.w3.org/2000/svg">
<path d="M42.017 14.0202L42.2857 13.7302L42.1364 13.3641C39.2713 6.33532 32.3693 1.37938 24.3083 1.37938C15.7889 1.37938 8.56407 6.91464 6.03082 14.5832L5.9316 14.8836L6.11633 15.1404C9.18817 19.41 15.8534 21.6406 22.787 21.5909C29.7503 21.5409 37.2226 19.1954 42.017 14.0202Z" fill="#C7E2FF" stroke="white" stroke-width="1.24124"/>
<path d="M6.23936 19.7237L5.2061 18.2841L5.11536 20.0538C4.70863 27.986 9.78028 35.5053 16.5163 38.1589L17.2053 38.4303L17.3521 37.7045C17.7576 35.7 17.7576 33.8537 17.7576 31.3307V31.2908V31.2908V30.9656L17.4902 30.7805C12.4432 27.2865 9.20199 23.8513 6.23936 19.7237Z" fill="#C7E2FF" stroke="white" stroke-width="1.24124"/>
<path d="M42.6768 17.53L43.2926 17.4528L43.1149 16.0365L42.2003 17.1324L42.6768 17.53ZM42.6768 17.53L43.2926 17.4529L43.2926 17.453L43.2926 17.4533L43.2928 17.4546L43.2934 17.4593L43.2956 17.4773L43.3039 17.5452C43.311 17.604 43.3211 17.689 43.3333 17.7941C43.3575 18.0041 43.3899 18.2954 43.4222 18.6203C43.4862 19.2617 43.5532 20.0629 43.5532 20.6242C43.5532 28.7808 38.4791 35.7507 31.3175 38.5526L30.8176 38.7482L30.552 38.2817C30.0849 37.4612 29.9335 36.4542 29.9084 35.4344C29.8833 34.4156 29.9843 33.3049 30.0813 32.2387L30.0831 32.218L30.0831 32.218L30.0832 32.2176L30.0965 32.0705L30.175 31.9449C30.4453 31.5124 31.3472 30.358 32.5031 28.9181C33.6742 27.4593 35.1423 25.6632 36.5783 23.9178C38.0146 22.1722 39.4201 20.4759 40.4664 19.2161C40.9895 18.5861 41.423 18.0653 41.7256 17.7019L42.0764 17.2809L42.1686 17.1703L42.1923 17.142L42.1983 17.1348L42.1998 17.133L42.2001 17.1325C42.2002 17.1324 42.2003 17.1324 42.6768 17.53Z" fill="#C7E2FF" stroke="white" stroke-width="1.24124"/>
<path d="M24.4181 8.07103C21.3129 8.07103 18.8428 10.6006 18.8428 13.6464C18.8428 16.6963 21.3681 19.2217 24.4181 19.2217C27.5233 19.2217 29.9934 16.6922 29.9934 13.6464C29.9934 10.6006 27.5233 8.07103 24.4181 8.07103Z" fill="#375B9F" stroke="white" stroke-width="1.24124"/>
<path d="M31.3842 38.5196L31.1153 37.9602C31.3842 38.5196 31.384 38.5197 31.3838 38.5198L31.3834 38.52L31.3823 38.5205L31.3793 38.5219L31.3706 38.526L31.3414 38.5395C31.3168 38.5507 31.282 38.5662 31.237 38.5855C31.1471 38.624 31.0169 38.6775 30.8479 38.7409C30.5101 38.8676 30.017 39.0339 29.3817 39.1993C28.1111 39.5302 26.2706 39.8579 23.9642 39.8579C21.6666 39.8579 19.7614 39.4354 18.4262 39.0041C17.7584 38.7885 17.2308 38.5698 16.865 38.3987C16.6826 38.3133 16.5374 38.2384 16.4332 38.18C16.3823 38.1515 16.3348 38.1233 16.2953 38.0973C16.2774 38.0856 16.2492 38.0665 16.22 38.0428C16.2073 38.0324 16.1777 38.008 16.1458 37.9729C16.1304 37.9559 16.1006 37.9216 16.0714 37.873C16.05 37.8375 15.982 37.7197 15.982 37.5516V37.4509L16.0138 37.3553C16.0256 37.3201 16.0485 37.2177 16.0739 37.0249C16.0978 36.844 16.12 36.6166 16.1403 36.3537C16.1809 35.8284 16.2124 35.1848 16.2379 34.5328C16.2621 33.9117 16.2809 33.2734 16.2969 32.7336C16.3078 32.3625 16.3174 32.0379 16.3264 31.7972C13.7545 30.2605 8.30429 26.8432 3.7923 18.12L3.79103 18.1176C2.64803 15.8835 1.79837 13.5637 1.53107 11.3719L1.52992 11.3624L1.52906 11.3529C1.5248 11.3061 1.51403 11.2245 1.5001 11.119C1.4573 10.7949 1.38471 10.2452 1.37969 9.78387C1.37628 9.46973 1.39867 9.10058 1.51392 8.78517C1.63613 8.45071 1.92097 8.05526 2.46597 8.0212C3.2049 7.97502 3.73903 8.48584 4.07385 8.93227C4.4256 9.40127 4.70334 9.99107 4.911 10.4833C6.56698 14.0374 8.88031 16.3982 11.964 17.8548C15.071 19.3223 19.009 19.895 23.9421 19.7685L23.9423 19.7685C28.8504 19.6439 33.7139 17.9717 37.5243 15.6692C41.3574 13.353 43.9947 10.4811 44.6544 8.03615C44.7326 7.67125 44.8647 7.3649 45.0659 7.13153C45.2797 6.88362 45.5417 6.75323 45.8025 6.7076C46.2556 6.62831 46.7002 6.83254 46.6803 6.82593L46.7386 6.84536L46.792 6.87585C46.9224 6.95034 47.0681 7.05372 47.1887 7.21085C47.3131 7.37291 47.3814 7.55366 47.4145 7.74102C47.4731 8.07322 47.4278 8.49126 47.3532 8.98807L47.3516 8.99877L47.3497 9.0094C46.7896 12.0229 45.1612 15.0584 43.1697 17.933C41.1747 20.8123 38.7775 23.5825 36.6361 26.0553M31.3842 38.5196L36.166 25.6501M31.3842 38.5196L31.8719 38.2851L31.7061 37.7701L31.7061 37.7701L31.706 37.7701L31.3842 38.5196ZM36.6361 26.0553C36.6358 26.0556 36.6355 26.056 36.6352 26.0563L36.166 25.6501M36.6361 26.0553C36.6363 26.0551 36.6364 26.0549 36.6366 26.0547L36.166 25.6501M36.6361 26.0553C36.5523 26.1527 36.4688 26.2497 36.3857 26.3464C34.3212 28.7462 32.4667 30.9018 31.3586 32.6918M36.166 25.6501C36.0742 25.7568 35.9826 25.8633 35.8914 25.9693C33.8003 28.3998 31.8773 30.6348 30.7516 32.4947M31.3586 32.6918C31.3614 32.6699 31.3642 32.6479 31.367 32.6261L31.3722 32.5861V32.5458V32.4947H30.7516M31.3586 32.6918C31.2212 33.792 31.2227 34.9965 31.3684 36.3082L31.3694 36.3167L31.3701 36.3252C31.3908 36.5737 31.4693 36.9249 31.5526 37.2395C31.5927 37.3913 31.6315 37.5252 31.6602 37.621C31.6745 37.6689 31.6862 37.7069 31.6942 37.7326L31.7033 37.7616L31.7055 37.7685L31.706 37.7699L31.706 37.77L30.7516 32.4947M31.3586 32.6918C31.3329 32.7334 31.3075 32.7748 31.2826 32.8161L30.8592 32.5598L30.836 32.5458L30.7516 32.4947M16.9091 31.422L16.8159 31.5152L16.9091 31.422Z" fill="#375B9F" stroke="white" stroke-width="1.24124"/>
<path d="M24.3666 30.145L24.1623 29.9918C23.8047 29.6853 20.3313 27.3867 20.3313 25.2925C20.3313 23.6068 21.5572 22.8917 22.732 22.8917C23.345 22.8917 23.9579 23.1471 24.3666 23.6579C24.7752 23.1982 25.3882 22.8917 26.0011 22.8917C27.1759 22.8917 28.4019 23.6579 28.4019 25.2925C28.4019 27.1313 24.9284 29.6853 24.5709 29.9918L24.3666 30.145Z" fill="#F5C451"/>
<path d="M61.9088 9.81793C64.6952 9.81793 66.0883 11.3598 66.0883 14.4435C66.0883 14.6633 66.0819 14.8928 66.0689 15.132H58.3403C58.3403 17.7955 59.7496 19.1273 62.5683 19.1273C63.7255 19.1273 64.7534 18.9656 65.652 18.6424V19.5151C64.7534 19.8384 63.7255 20 62.5683 20C59.0708 20 57.3221 18.2642 57.3221 14.7926C57.3221 11.4762 58.851 9.81793 61.9088 9.81793ZM58.3403 14.2205H65.1089C65.0701 11.8543 64.0034 10.6713 61.9088 10.6713C59.6462 10.6713 58.4566 11.8543 58.3403 14.2205ZM71.4509 14.909L67.4944 9.81793H68.7066L72.0521 14.1235L75.3977 9.81793H76.6098L72.6631 14.909L76.6098 20H75.3977L72.0521 15.6944L68.7066 20H67.4944L71.4509 14.909ZM79.519 18.5066C80.5469 18.8557 81.494 19.0303 82.3603 19.0303C84.9914 19.0303 86.307 17.566 86.307 14.6374C86.307 12.0321 84.9979 10.7295 82.3797 10.7295C81.4746 10.7295 80.521 10.807 79.519 10.9622V18.5066ZM78.5008 10.2349C79.658 9.95692 80.9574 9.81793 82.399 9.81793C85.6638 9.81793 87.2961 11.4309 87.2961 14.6568C87.2961 18.2189 85.6541 20 82.37 20C81.5554 20 80.6051 19.8384 79.519 19.5151V23.6849H78.5008V10.2349ZM94.026 9.81793C96.8123 9.81793 98.2055 11.3598 98.2055 14.4435C98.2055 14.6633 98.199 14.8928 98.1861 15.132H90.4574C90.4574 17.7955 91.8668 19.1273 94.6854 19.1273C95.8426 19.1273 96.8705 18.9656 97.7691 18.6424V19.5151C96.8705 19.8384 95.8426 20 94.6854 20C91.188 20 89.4392 18.2642 89.4392 14.7926C89.4392 11.4762 90.9681 9.81793 94.026 9.81793ZM90.4574 14.2205H97.2261C97.1873 11.8543 96.1206 10.6713 94.026 10.6713C91.7633 10.6713 90.5738 11.8543 90.4574 14.2205ZM100.824 20V9.81793H101.551L101.677 11.5052C102.699 10.3804 103.836 9.81793 105.091 9.81793V10.6325C103.875 10.6325 102.792 11.224 101.842 12.4071V20H100.824ZM108.3 6.13299V7.29665H107.088V6.13299H108.3ZM108.203 9.81793V20H107.185V9.81793H108.203ZM115.612 9.81793C118.398 9.81793 119.791 11.3598 119.791 14.4435C119.791 14.6633 119.785 14.8928 119.772 15.132H112.043C112.043 17.7955 113.453 19.1273 116.271 19.1273C117.429 19.1273 118.457 18.9656 119.355 18.6424V19.5151C118.457 19.8384 117.429 20 116.271 20C112.774 20 111.025 18.2642 111.025 14.7926C111.025 11.4762 112.554 9.81793 115.612 9.81793ZM112.043 14.2205H118.812C118.773 11.8543 117.707 10.6713 115.612 10.6713C113.349 10.6713 112.16 11.8543 112.043 14.2205ZM122.41 20V9.81793H123.137L123.263 11.1174C124.563 10.2511 125.836 9.81793 127.084 9.81793C129.56 9.81793 130.798 10.8879 130.798 13.0277V20H129.78V12.9986C129.78 11.4858 128.865 10.7295 127.035 10.7295C125.813 10.7295 124.611 11.1594 123.428 12.0192V20H122.41ZM141.281 19.7091C140.44 19.903 139.535 20 138.565 20C135.139 20 133.426 18.2383 133.426 14.715C133.426 11.4503 135.139 9.81793 138.565 9.81793C139.535 9.81793 140.44 9.9149 141.281 10.1088V10.9816C140.375 10.7877 139.503 10.6907 138.662 10.6907C135.915 10.6907 134.541 12.0321 134.541 14.715C134.541 17.6565 135.915 19.1273 138.662 19.1273C139.503 19.1273 140.375 19.0303 141.281 18.8363V19.7091ZM144.975 6.13299V7.29665H143.763V6.13299H144.975ZM144.878 9.81793V20H143.86V9.81793H144.878ZM147.603 17.1199C147.603 15.0964 148.948 14.0847 151.637 14.0847C152.587 14.0847 153.602 14.1493 154.682 14.2786V13.0277C154.682 11.4697 153.703 10.6907 151.744 10.6907C150.697 10.6907 149.623 10.8523 148.524 11.1755V10.3028C149.623 9.97955 150.697 9.81793 151.744 9.81793C154.381 9.81793 155.7 10.8717 155.7 12.9792V20H155.08L154.847 18.9915C153.573 19.6638 152.339 20 151.143 20C148.783 20 147.603 19.04 147.603 17.1199ZM151.637 14.9575C149.627 14.9575 148.621 15.6686 148.621 17.0908C148.621 18.4484 149.462 19.1273 151.143 19.1273C152.384 19.1273 153.564 18.7975 154.682 18.1381V15.1514C153.602 15.0221 152.587 14.9575 151.637 14.9575ZM158.91 20V6.13299H164.534C167.366 6.13299 168.782 7.371 168.782 9.84702C168.782 12.5428 166.846 14.1881 162.973 14.7829L162.605 13.2701C165.449 12.8499 166.871 11.7347 166.871 9.9246C166.871 8.38597 166.037 7.61666 164.37 7.61666H160.704V20H158.91ZM170.489 16.926C170.489 14.8379 171.866 13.7938 174.62 13.7938C175.505 13.7938 176.391 13.8584 177.277 13.9877V13.0277C177.277 11.8576 176.362 11.2725 174.532 11.2725C173.485 11.2725 172.412 11.4341 171.313 11.7574V10.3028C172.412 9.97955 173.485 9.81793 174.532 9.81793C177.558 9.81793 179.071 10.8717 179.071 12.9792V20H178.062L177.441 18.9915C176.426 19.6638 175.321 20 174.125 20C171.701 20 170.489 18.9753 170.489 16.926ZM174.62 15.2484C173.061 15.2484 172.282 15.7979 172.282 16.8969C172.282 17.9959 172.897 18.5454 174.125 18.5454C175.366 18.5454 176.417 18.2157 177.277 17.5563V15.4423C176.391 15.313 175.505 15.2484 174.62 15.2484ZM189.65 19.7091C188.81 19.903 187.905 20 186.935 20C183.315 20 181.505 18.2383 181.505 14.715C181.505 11.4503 183.315 9.81793 186.935 9.81793C187.905 9.81793 188.81 9.9149 189.65 10.1088V11.5634C188.81 11.3695 187.872 11.2725 186.838 11.2725C184.478 11.2725 183.299 12.42 183.299 14.715C183.299 17.2686 184.478 18.5454 186.838 18.5454C187.872 18.5454 188.81 18.4484 189.65 18.2545V19.7091ZM193.927 9.81793V20H192.133V9.81793H193.927ZM193.927 6.13299V7.83H192.133V6.13299H193.927ZM201.238 9.81793C204.135 9.81793 205.583 11.2499 205.583 14.1138C205.583 14.5211 205.554 14.9575 205.495 15.4229H198.349C198.349 17.5046 199.564 18.5454 201.995 18.5454C203.152 18.5454 204.18 18.4161 205.078 18.1575V19.6121C204.18 19.8707 203.087 20 201.801 20C198.303 20 196.555 18.2642 196.555 14.7926C196.555 11.4762 198.116 9.81793 201.238 9.81793ZM198.349 13.9295H203.857C203.818 12.1453 202.945 11.2531 201.238 11.2531C199.428 11.2531 198.465 12.1453 198.349 13.9295ZM207.997 20V9.81793H209.209L209.529 11.1174C210.57 10.2511 211.715 9.81793 212.962 9.81793C215.503 9.81793 216.773 11.0818 216.773 13.6095V20H214.979V13.5804C214.979 12.0677 214.226 11.3113 212.72 11.3113C211.692 11.3113 210.716 11.7412 209.791 12.601V20H207.997ZM219.692 8.1694H220.817L221.205 9.81793H223.959V11.2725H221.486V17.1199C221.486 18.0703 221.897 18.5454 222.718 18.5454H223.959V20H222.252C220.546 20 219.692 19.0852 219.692 17.2557V8.1694ZM230.446 9.81793C233.343 9.81793 234.791 11.2499 234.791 14.1138C234.791 14.5211 234.762 14.9575 234.703 15.4229H227.557C227.557 17.5046 228.772 18.5454 231.203 18.5454C232.36 18.5454 233.388 18.4161 234.286 18.1575V19.6121C233.388 19.8707 232.295 20 231.009 20C227.511 20 225.763 18.2642 225.763 14.7926C225.763 11.4762 227.324 9.81793 230.446 9.81793ZM227.557 13.9295H233.065C233.026 12.1453 232.153 11.2531 230.446 11.2531C228.636 11.2531 227.673 12.1453 227.557 13.9295Z" fill="#375B9F"/>
<path d="M112.527 31.3219V30.7219H116.716V31.3219H114.959V36.3074H114.283V31.3219H112.527ZM121.579 30.7219H122.255V34.4201C122.255 34.8019 122.165 35.1428 121.985 35.4428C121.807 35.741 121.555 35.9765 121.229 36.1492C120.904 36.3201 120.522 36.4056 120.084 36.4056C119.646 36.4056 119.264 36.3201 118.939 36.1492C118.613 35.9765 118.36 35.741 118.18 35.4428C118.002 35.1428 117.913 34.8019 117.913 34.4201V30.7219H118.589V34.3656C118.589 34.6383 118.649 34.881 118.769 35.0937C118.889 35.3046 119.06 35.471 119.282 35.5928C119.506 35.7128 119.773 35.7728 120.084 35.7728C120.395 35.7728 120.662 35.7128 120.886 35.5928C121.109 35.471 121.28 35.3046 121.399 35.0937C121.519 34.881 121.579 34.6383 121.579 34.3656V30.7219ZM129.127 32.1183C129.095 31.8419 128.962 31.6274 128.729 31.4746C128.496 31.3219 128.211 31.2456 127.873 31.2456C127.626 31.2456 127.409 31.2856 127.224 31.3656C127.04 31.4456 126.896 31.5556 126.793 31.6956C126.691 31.8356 126.64 31.9946 126.64 32.1728C126.64 32.3219 126.676 32.4501 126.746 32.5574C126.819 32.6628 126.912 32.751 127.025 32.8219C127.137 32.891 127.256 32.9483 127.379 32.9937C127.503 33.0374 127.616 33.0728 127.72 33.1001L128.287 33.2528C128.433 33.291 128.595 33.3437 128.773 33.411C128.953 33.4783 129.125 33.5701 129.288 33.6865C129.454 33.801 129.59 33.9483 129.697 34.1283C129.805 34.3083 129.858 34.5292 129.858 34.791C129.858 35.0928 129.779 35.3656 129.621 35.6092C129.465 35.8528 129.236 36.0465 128.934 36.1901C128.634 36.3337 128.269 36.4056 127.84 36.4056C127.44 36.4056 127.094 36.341 126.801 36.2119C126.51 36.0828 126.281 35.9028 126.114 35.6719C125.948 35.441 125.855 35.1728 125.833 34.8674H126.531C126.549 35.0783 126.62 35.2528 126.744 35.391C126.869 35.5274 127.027 35.6292 127.218 35.6965C127.411 35.7619 127.618 35.7946 127.84 35.7946C128.098 35.7946 128.33 35.7528 128.536 35.6692C128.741 35.5837 128.904 35.4656 129.024 35.3146C129.144 35.1619 129.204 34.9837 129.204 34.7801C129.204 34.5946 129.152 34.4437 129.048 34.3274C128.945 34.211 128.808 34.1165 128.639 34.0437C128.47 33.971 128.287 33.9074 128.091 33.8528L127.404 33.6565C126.967 33.531 126.622 33.3519 126.367 33.1192C126.113 32.8865 125.986 32.5819 125.986 32.2056C125.986 31.8928 126.07 31.6201 126.239 31.3874C126.41 31.1528 126.639 30.971 126.926 30.8419C127.216 30.711 127.538 30.6456 127.895 30.6456C128.255 30.6456 128.575 30.7101 128.855 30.8392C129.135 30.9665 129.356 31.141 129.52 31.3628C129.686 31.5846 129.773 31.8365 129.782 32.1183H129.127ZM131.353 36.3074H130.644L132.695 30.7219H133.393L135.444 36.3074H134.735L133.066 31.6056H133.022L131.353 36.3074ZM131.615 34.1256H134.473V34.7256H131.615V34.1256ZM136.468 36.3074V30.7219H137.144V35.7074H139.74V36.3074H136.468ZM144.607 30.7219H145.283V34.4201C145.283 34.8019 145.193 35.1428 145.013 35.4428C144.835 35.741 144.583 35.9765 144.257 36.1492C143.932 36.3201 143.55 36.4056 143.112 36.4056C142.674 36.4056 142.292 36.3201 141.967 36.1492C141.641 35.9765 141.388 35.741 141.208 35.4428C141.03 35.1428 140.941 34.8019 140.941 34.4201V30.7219H141.617V34.3656C141.617 34.6383 141.677 34.881 141.797 35.0937C141.917 35.3046 142.088 35.471 142.31 35.5928C142.534 35.7128 142.801 35.7728 143.112 35.7728C143.423 35.7728 143.69 35.7128 143.914 35.5928C144.137 35.471 144.308 35.3046 144.427 35.0937C144.547 34.881 144.607 34.6383 144.607 34.3656V30.7219ZM148.511 36.3074H146.787V30.7219H148.587C149.129 30.7219 149.593 30.8337 149.978 31.0574C150.364 31.2792 150.659 31.5983 150.864 32.0146C151.07 32.4292 151.173 32.9256 151.173 33.5037C151.173 34.0856 151.069 34.5865 150.862 35.0065C150.654 35.4246 150.353 35.7465 149.956 35.9719C149.56 36.1956 149.078 36.3074 148.511 36.3074ZM147.464 35.7074H148.467C148.929 35.7074 149.312 35.6183 149.615 35.4401C149.919 35.2619 150.145 35.0083 150.294 34.6792C150.444 34.3501 150.518 33.9583 150.518 33.5037C150.518 33.0528 150.444 32.6646 150.297 32.3392C150.15 32.0119 149.93 31.761 149.637 31.5865C149.344 31.4101 148.98 31.3219 148.544 31.3219H147.464V35.7074ZM152.981 35.5437L152.937 35.8383C152.906 36.0456 152.859 36.2674 152.796 36.5037C152.734 36.7401 152.669 36.9628 152.602 37.1719C152.535 37.381 152.479 37.5474 152.436 37.671H151.945C151.968 37.5546 151.999 37.401 152.037 37.2101C152.076 37.0192 152.114 36.8056 152.152 36.5692C152.192 36.3346 152.225 36.0946 152.25 35.8492L152.283 35.5437H152.981ZM156.728 36.3074V30.7219H160.077V31.3219H157.404V33.2092H159.826V33.8092H157.404V36.3074H156.728ZM165.055 30.7219H165.731V34.4201C165.731 34.8019 165.641 35.1428 165.461 35.4428C165.283 35.741 165.031 35.9765 164.705 36.1492C164.38 36.3201 163.998 36.4056 163.56 36.4056C163.122 36.4056 162.74 36.3201 162.415 36.1492C162.089 35.9765 161.836 35.741 161.656 35.4428C161.478 35.1428 161.389 34.8019 161.389 34.4201V30.7219H162.065V34.3656C162.065 34.6383 162.125 34.881 162.245 35.0937C162.365 35.3046 162.536 35.471 162.758 35.5928C162.982 35.7128 163.249 35.7728 163.56 35.7728C163.871 35.7728 164.138 35.7128 164.362 35.5928C164.585 35.471 164.756 35.3046 164.875 35.0937C164.995 34.881 165.055 34.6383 165.055 34.3656V30.7219ZM167.235 36.3074V30.7219H170.606V31.3219H167.912V33.2092H170.432V33.8092H167.912V35.7074H170.65V36.3074H167.235ZM171.979 36.3074V30.7219H173.866C174.302 30.7219 174.661 30.7965 174.941 30.9456C175.221 31.0928 175.428 31.2956 175.562 31.5537C175.697 31.8119 175.764 32.1056 175.764 32.4346C175.764 32.7637 175.697 33.0556 175.562 33.3101C175.428 33.5646 175.222 33.7646 174.943 33.9101C174.665 34.0537 174.31 34.1256 173.877 34.1256H172.35V33.5146H173.855C174.153 33.5146 174.393 33.471 174.575 33.3837C174.759 33.2965 174.892 33.1728 174.973 33.0128C175.057 32.851 175.099 32.6583 175.099 32.4346C175.099 32.211 175.057 32.0156 174.973 31.8483C174.89 31.681 174.756 31.5519 174.572 31.461C174.389 31.3683 174.146 31.3219 173.844 31.3219H172.655V36.3074H171.979ZM174.608 33.7983L175.982 36.3074H175.197L173.844 33.7983H174.608ZM177.274 36.3074H176.565L178.616 30.7219H179.314L181.365 36.3074H180.656L178.987 31.6056H178.943L177.274 36.3074ZM177.536 34.1256H180.394V34.7256H177.536V34.1256ZM186.426 36.3074H184.702V30.7219H186.502C187.044 30.7219 187.508 30.8337 187.893 31.0574C188.278 31.2792 188.574 31.5983 188.779 32.0146C188.985 32.4292 189.088 32.9256 189.088 33.5037C189.088 34.0856 188.984 34.5865 188.777 35.0065C188.569 35.4246 188.268 35.7465 187.871 35.9719C187.475 36.1956 186.993 36.3074 186.426 36.3074ZM185.378 35.7074H186.382C186.844 35.7074 187.227 35.6183 187.53 35.4401C187.834 35.2619 188.06 35.0083 188.209 34.6792C188.358 34.3501 188.433 33.9583 188.433 33.5037C188.433 33.0528 188.359 32.6646 188.212 32.3392C188.065 32.0119 187.845 31.761 187.552 31.5865C187.259 31.4101 186.895 31.3219 186.458 31.3219H185.378V35.7074ZM190.376 36.3074V30.7219H193.747V31.3219H191.052V33.2092H193.572V33.8092H191.052V35.7074H193.79V36.3074H190.376ZM195.119 36.3074V30.7219H195.796V35.7074H198.392V36.3074H195.119ZM206.401 32.4674H205.725C205.685 32.2728 205.615 32.1019 205.515 31.9546C205.417 31.8074 205.297 31.6837 205.155 31.5837C205.015 31.4819 204.859 31.4056 204.688 31.3546C204.517 31.3037 204.339 31.2783 204.154 31.2783C203.816 31.2783 203.509 31.3637 203.235 31.5346C202.962 31.7056 202.745 31.9574 202.583 32.2901C202.423 32.6228 202.343 33.031 202.343 33.5146C202.343 33.9983 202.423 34.4065 202.583 34.7392C202.745 35.0719 202.962 35.3237 203.235 35.4946C203.509 35.6656 203.816 35.751 204.154 35.751C204.339 35.751 204.517 35.7256 204.688 35.6746C204.859 35.6237 205.015 35.5483 205.155 35.4483C205.297 35.3465 205.417 35.2219 205.515 35.0746C205.615 34.9256 205.685 34.7546 205.725 34.5619H206.401C206.35 34.8474 206.257 35.1028 206.123 35.3283C205.988 35.5537 205.821 35.7456 205.621 35.9037C205.421 36.0601 205.197 36.1792 204.947 36.261C204.7 36.3428 204.436 36.3837 204.154 36.3837C203.677 36.3837 203.254 36.2674 202.883 36.0346C202.512 35.8019 202.22 35.471 202.007 35.0419C201.795 34.6128 201.688 34.1037 201.688 33.5146C201.688 32.9256 201.795 32.4165 202.007 31.9874C202.22 31.5583 202.512 31.2274 202.883 30.9946C203.254 30.7619 203.677 30.6456 204.154 30.6456C204.436 30.6456 204.7 30.6865 204.947 30.7683C205.197 30.8501 205.421 30.9701 205.621 31.1283C205.821 31.2846 205.988 31.4756 206.123 31.701C206.257 31.9246 206.35 32.1801 206.401 32.4674ZM208.324 30.7219V36.3074H207.648V30.7219H208.324ZM209.834 36.3074V30.7219H211.721C212.157 30.7219 212.516 30.7965 212.796 30.9456C213.076 31.0928 213.283 31.2956 213.417 31.5537C213.552 31.8119 213.619 32.1056 213.619 32.4346C213.619 32.7637 213.552 33.0556 213.417 33.3101C213.283 33.5646 213.076 33.7646 212.798 33.9101C212.52 34.0537 212.165 34.1256 211.732 34.1256H210.205V33.5146H211.71C212.008 33.5146 212.248 33.471 212.43 33.3837C212.614 33.2965 212.746 33.1728 212.828 33.0128C212.912 32.851 212.954 32.6583 212.954 32.4346C212.954 32.211 212.912 32.0156 212.828 31.8483C212.745 31.681 212.611 31.5519 212.427 31.461C212.244 31.3683 212.001 31.3219 211.699 31.3219H210.51V36.3074H209.834ZM212.463 33.7983L213.837 36.3074H213.052L211.699 33.7983H212.463ZM219.394 32.4674H218.718C218.678 32.2728 218.608 32.1019 218.508 31.9546C218.41 31.8074 218.29 31.6837 218.148 31.5837C218.008 31.4819 217.853 31.4056 217.682 31.3546C217.511 31.3037 217.333 31.2783 217.147 31.2783C216.809 31.2783 216.503 31.3637 216.228 31.5346C215.955 31.7056 215.738 31.9574 215.576 32.2901C215.416 32.6228 215.336 33.031 215.336 33.5146C215.336 33.9983 215.416 34.4065 215.576 34.7392C215.738 35.0719 215.955 35.3237 216.228 35.4946C216.503 35.6656 216.809 35.751 217.147 35.751C217.333 35.751 217.511 35.7256 217.682 35.6746C217.853 35.6237 218.008 35.5483 218.148 35.4483C218.29 35.3465 218.41 35.2219 218.508 35.0746C218.608 34.9256 218.678 34.7546 218.718 34.5619H219.394C219.343 34.8474 219.251 35.1028 219.116 35.3283C218.982 35.5537 218.814 35.7456 218.614 35.9037C218.414 36.0601 218.19 36.1792 217.941 36.261C217.693 36.3428 217.429 36.3837 217.147 36.3837C216.671 36.3837 216.247 36.2674 215.876 36.0346C215.505 35.8019 215.213 35.471 215.001 35.0419C214.788 34.6128 214.682 34.1037 214.682 33.5146C214.682 32.9256 214.788 32.4165 215.001 31.9874C215.213 31.5583 215.505 31.2274 215.876 30.9946C216.247 30.7619 216.671 30.6456 217.147 30.6456C217.429 30.6456 217.693 30.6865 217.941 30.7683C218.19 30.8501 218.414 30.9701 218.614 31.1283C218.814 31.2846 218.982 31.4756 219.116 31.701C219.251 31.9246 219.343 32.1801 219.394 32.4674ZM224.306 30.7219H224.983V34.4201C224.983 34.8019 224.893 35.1428 224.713 35.4428C224.535 35.741 224.283 35.9765 223.957 36.1492C223.632 36.3201 223.25 36.4056 222.812 36.4056C222.374 36.4056 221.992 36.3201 221.666 36.1492C221.341 35.9765 221.088 35.741 220.908 35.4428C220.73 35.1428 220.641 34.8019 220.641 34.4201V30.7219H221.317V34.3656C221.317 34.6383 221.377 34.881 221.497 35.0937C221.617 35.3046 221.788 35.471 222.01 35.5928C222.234 35.7128 222.501 35.7728 222.812 35.7728C223.123 35.7728 223.39 35.7128 223.614 35.5928C223.837 35.471 224.008 35.3046 224.126 35.0937C224.246 34.881 224.306 34.6383 224.306 34.3656V30.7219ZM226.487 36.3074V30.7219H227.163V35.7074H229.76V36.3074H226.487ZM235.456 33.5146C235.456 34.1037 235.349 34.6128 235.137 35.0419C234.924 35.471 234.632 35.8019 234.261 36.0346C233.89 36.2674 233.467 36.3837 232.99 36.3837C232.514 36.3837 232.09 36.2674 231.719 36.0346C231.349 35.8019 231.057 35.471 230.844 35.0419C230.631 34.6128 230.525 34.1037 230.525 33.5146C230.525 32.9256 230.631 32.4165 230.844 31.9874C231.057 31.5583 231.349 31.2274 231.719 30.9946C232.09 30.7619 232.514 30.6456 232.99 30.6456C233.467 30.6456 233.89 30.7619 234.261 30.9946C234.632 31.2274 234.924 31.5583 235.137 31.9874C235.349 32.4165 235.456 32.9256 235.456 33.5146ZM234.801 33.5146C234.801 33.031 234.72 32.6228 234.559 32.2901C234.399 31.9574 234.181 31.7056 233.907 31.5346C233.634 31.3637 233.329 31.2783 232.99 31.2783C232.652 31.2783 232.346 31.3637 232.071 31.5346C231.799 31.7056 231.581 31.9574 231.419 32.2901C231.259 32.6228 231.179 33.031 231.179 33.5146C231.179 33.9983 231.259 34.4065 231.419 34.7392C231.581 35.0719 231.799 35.3237 232.071 35.4946C232.346 35.6656 232.652 35.751 232.99 35.751C233.329 35.751 233.634 35.6656 233.907 35.4946C234.181 35.3237 234.399 35.0719 234.559 34.7392C234.72 34.4065 234.801 33.9983 234.801 33.5146Z" fill="#6CBCFC"/>
</svg>
